<svg
  width="116"
  height="37"
  viewBox="0 0 116 37"
  fill="none"
  xmlns="http://www.w3.org/2000/svg"
>
  <title>Sytac Logo</title>
  <g clip-path="url(#clip0_1702_29260)">
    <path
      d="M27.2346 11.9951V20.8469L30.1942 19.2273V10.3755L27.2346 11.9951Z"
      fill="#E67E25"
    />
    <path
      d="M2.9621 9.04454L12.401 3.8801L27.2346 11.9951L30.1942 10.3755L12.401 0.638477L0 7.42495L2.9621 9.04454Z"
      fill="#E67E25"
    />
    <path
      d="M2.9621 9.04454L0 7.42495V20.9918L4.03385 23.1996V19.9604L2.9621 19.3722V9.04454Z"
      fill="#E67E25"
    />
    <path
      d="M17.7945 27.4872L9.67536 23.0461L9.67407 26.2853L17.7945 30.7276V27.4872Z"
      fill="#E67E25"
    />
    <path
      d="M32.6833 9.01653V19.3442L17.7944 27.4872V30.7276L35.6454 20.9674V7.39694L32.6833 9.01653Z"
      fill="#E67E25"
    />
    <path
      d="M23.2432 0.612904L19.1464 2.85355L22.1097 4.47314L23.2432 3.85453L32.6834 9.01653L35.6455 7.39694L23.2432 0.612904Z"
      fill="#E67E25"
    />
    <path
      d="M17.7945 33.1777L8.35431 28.0133V11.9951L5.39349 10.3755V29.6329L17.7945 36.4194V33.1777Z"
      fill="#E67E25"
    />
    <path
      d="M8.35431 11.9951L16.467 7.5589L13.5075 5.9393L5.39349 10.3755L8.35431 11.9951Z"
      fill="#E67E25"
    />
    <path
      d="M27.2346 27.0233V28.0133L17.7944 33.1777V36.4194L30.1941 29.6329V25.4012L27.2346 27.0233Z"
      fill="#E67E25"
    />
    <path
      d="M50.8653 15.5361C50.2009 15.2974 49.6059 15.0319 49.0778 14.7446C48.5509 14.4572 48.1011 14.1162 47.7297 13.718C47.3596 13.321 47.0705 12.8437 46.8649 12.2872C46.6618 11.7319 46.5577 11.0658 46.5577 10.2901C46.5577 9.34387 46.7286 8.51216 47.0705 7.79004C47.4136 7.06792 47.8955 6.4627 48.5213 5.97073C49.1459 5.4812 49.8976 5.11101 50.7779 4.86015C51.6556 4.60808 52.6426 4.48387 53.7374 4.48387C54.7334 4.48387 55.6638 4.5679 56.5351 4.73594C57.4025 4.90156 58.3175 5.14145 59.2774 5.45563C59.1579 6.52968 58.8443 7.58424 58.3367 8.62054C58.045 8.51094 57.7469 8.40013 57.4423 8.28931C57.1403 8.17728 56.8191 8.08595 56.4759 8.00923C56.1367 7.93617 55.7486 7.8765 55.3207 7.83022C54.8902 7.78395 54.4005 7.76203 53.8531 7.76203C53.5228 7.76203 53.1861 7.79004 52.843 7.84484C52.5025 7.90085 52.1941 8.00314 51.9203 8.14927C51.6453 8.29905 51.4217 8.51459 51.247 8.80198C51.0709 9.09058 50.9822 9.46443 50.9822 9.92839C50.9822 10.2974 51.0503 10.6079 51.1853 10.8587C51.3228 11.1059 51.5091 11.319 51.743 11.4968C51.9782 11.6722 52.2416 11.8195 52.5359 11.9401C52.8263 12.0607 53.1193 12.1763 53.4123 12.2872L55.1716 12.9265C55.9131 13.2029 56.5852 13.4915 57.1943 13.7862C57.7983 14.0821 58.3097 14.4486 58.7313 14.8822C59.1515 15.3169 59.4792 15.8454 59.7156 16.4652C59.9482 17.0851 60.0652 17.8498 60.0652 18.7558C60.0652 19.6618 59.8853 20.5617 59.5254 21.3374C59.1618 22.1143 58.6387 22.7804 57.9563 23.3357C57.2701 23.891 56.4258 24.3282 55.4209 24.6399C54.416 24.9541 53.2581 25.1124 51.9499 25.1124C51.3048 25.1124 50.7291 25.0917 50.2202 25.0564C49.7126 25.0186 49.2281 24.959 48.7693 24.8762C48.3106 24.7934 47.8569 24.6874 47.4072 24.5571C46.9587 24.4268 46.4909 24.2673 46 24.0846C46.0604 23.5476 46.1658 22.9862 46.3251 22.4054C46.4806 21.8208 46.6644 21.2363 46.8803 20.6433C47.7014 20.9575 48.4725 21.1961 49.1947 21.3532C49.9182 21.5103 50.6905 21.5858 51.5104 21.5858C52.7415 21.5858 53.7079 21.3703 54.4108 20.9343C55.1138 20.5008 55.4659 19.8408 55.4659 18.9506C55.4659 18.5062 55.3823 18.1347 55.2153 17.8401C55.0508 17.5417 54.8375 17.2933 54.5715 17.0899C54.3093 16.8853 54.0086 16.7149 53.6783 16.5773C53.3442 16.4384 53.005 16.3033 52.6528 16.173L50.8653 15.5349V15.5361Z"
      fill="white"
    />
    <path
      d="M86.7485 22.9156C86.6894 22.5381 86.593 22.1716 86.4568 21.8196C86.2396 21.8549 85.9903 21.8951 85.7076 21.9426C85.4262 21.9901 85.1396 22.0145 84.8453 22.0145C84.4739 22.0145 84.1527 21.9755 83.8789 21.9024C83.6052 21.8282 83.3765 21.6893 83.1901 21.486C83.0064 21.2814 82.8637 21.005 82.7661 20.6543C82.6671 20.3023 82.6183 19.8384 82.6183 19.2636V13.6291H86.1638C86.2216 13.332 86.2615 13.0629 86.2833 12.8217C86.3 12.5806 86.3116 12.3322 86.3116 12.0728C86.3116 11.8305 86.3 11.6003 86.2833 11.3787C86.2615 11.1559 86.2216 10.9062 86.1638 10.6274H82.6183V6.43591H81.9449L78.4829 10.6274C78.4829 10.6274 72.303 10.5166 71.6579 10.6274L68.0853 23.1494L64.9202 10.6274C64.5874 10.5543 64.2173 10.5068 63.806 10.491C63.3974 10.4703 62.9939 10.463 62.6045 10.463C62.3128 10.463 61.9954 10.4666 61.651 10.4752C61.3091 10.4837 60.9146 10.5336 60.4648 10.6274L64.9202 24.9833C65.0744 25.0186 65.2517 25.0393 65.4484 25.0393H66.0626C66.3325 25.0393 66.6062 25.032 66.8671 25.0235C67.1344 25.015 67.3708 25.0004 67.5842 24.9833L67.0868 26.704C66.9313 27.241 66.7527 27.6575 66.5587 27.9534C66.3621 28.2517 66.1539 28.4685 65.9316 28.6061C65.7054 28.7449 65.4779 28.8265 65.2389 28.857C65.005 28.8837 64.775 28.8984 64.5373 28.8984C64.2468 28.8984 63.9513 28.8752 63.657 28.8277C63.3614 28.7827 63.1301 28.734 62.954 28.6767C62.796 29.0457 62.6675 29.4305 62.5595 29.8299C62.4516 30.2281 62.3976 30.647 62.3976 31.0927V31.2997C62.3976 31.3643 62.4053 31.4434 62.4272 31.536C62.8551 31.648 63.2907 31.7357 63.7315 31.8015C64.1697 31.866 64.6645 31.8977 65.2093 31.8977C65.7953 31.8977 66.3441 31.8441 66.853 31.743C67.3606 31.6419 67.818 31.4617 68.2293 31.2048C68.6392 30.9429 69.0042 30.5825 69.328 30.1222C69.6519 29.6582 69.9307 29.0761 70.1633 28.3711L74.8628 13.6291H78.5137V20.1258C78.5137 21.9024 78.9815 23.1835 79.9209 23.9677C80.8577 24.7568 82.2173 25.1489 83.9933 25.1489C84.9494 25.1489 85.8772 25.0479 86.7755 24.8445C86.7961 24.7142 86.8102 24.579 86.8205 24.4439C86.8295 24.3026 86.8346 24.1346 86.8346 23.9275C86.8346 23.6328 86.8063 23.2955 86.7472 22.9144L86.7485 22.9156Z"
      fill="white"
    />
    <path
      d="M96.7348 15.3412C96.7348 14.898 96.6538 14.5339 96.4983 14.2599C96.3416 13.981 96.1282 13.7618 95.8558 13.6035C95.5808 13.4501 95.2454 13.3405 94.8432 13.2845C94.4448 13.2297 93.9989 13.2017 93.5093 13.2017C92.4568 13.2017 91.3323 13.3977 90.1411 13.785C89.8686 13.3052 89.6617 12.851 89.5242 12.4248C89.3867 11.9998 89.3186 11.4895 89.3186 10.8989C90.1796 10.6188 91.0406 10.4131 91.8965 10.2876C92.76 10.1573 93.5594 10.0916 94.3009 10.0916C96.3364 10.0916 97.9183 10.5555 99.0621 11.481C100.206 12.4041 100.775 13.8873 100.775 15.9233V24.2527C100.093 24.456 99.2638 24.6509 98.2846 24.8372C97.3079 25.0199 96.2028 25.1136 94.9717 25.1136C93.9783 25.1136 93.0659 25.0284 92.2332 24.864C91.4043 24.6947 90.6911 24.4207 90.0961 24.0298C89.5011 23.6414 89.0398 23.1421 88.7185 22.5308C88.3972 21.9195 88.234 21.173 88.234 20.2816C88.234 19.3902 88.4345 18.6486 88.8329 18.0471C89.2338 17.4467 89.753 16.9645 90.3865 16.6028C91.0201 16.2436 91.7294 15.983 92.5095 15.8271C93.2921 15.67 94.0734 15.5909 94.8547 15.5909C95.4189 15.5909 96.046 15.6177 96.7309 15.6737V15.3412H96.7348ZM96.7348 18.2005C96.4983 18.1652 96.2439 18.1323 95.9715 18.1055C95.6965 18.0763 95.4549 18.0641 95.2428 18.0641C94.2803 18.0641 93.5234 18.2249 92.9708 18.5476C92.4131 18.8727 92.1355 19.3951 92.1355 20.1184C92.1355 20.5982 92.2422 20.9709 92.4568 21.2278C92.6701 21.4884 92.9271 21.6772 93.2317 21.7977C93.5337 21.9195 93.8562 21.9938 94.1981 22.0206C94.5399 22.0498 94.8367 22.0607 95.0925 22.0607C95.3842 22.0607 95.6785 22.04 95.9702 21.9938C96.2619 21.9463 96.515 21.9037 96.7335 21.8671V18.2029L96.7348 18.2005Z"
      fill="white"
    />
    <path
      d="M113.54 21.3959C113.776 21.7648 113.969 22.1959 114.124 22.6867C114.283 23.1762 114.362 23.7558 114.362 24.4219C113.58 24.7166 112.847 24.9054 112.162 24.9882C111.479 25.0746 110.764 25.1148 110.021 25.1148C108.752 25.1148 107.648 24.9236 106.711 24.5461C105.774 24.165 104.997 23.6426 104.382 22.9777C103.767 22.3104 103.302 21.5188 102.991 20.6031C102.68 19.6874 102.522 18.6925 102.522 17.6172C102.522 16.5419 102.676 15.5836 102.976 14.6764C103.278 13.7691 103.74 12.9727 104.355 12.2859C104.971 11.6016 105.737 11.0645 106.656 10.6749C107.572 10.2888 108.636 10.0928 109.849 10.0928C110.277 10.0928 110.673 10.1025 111.034 10.1196C111.395 10.1403 111.742 10.1756 112.075 10.2328C112.408 10.2888 112.739 10.3607 113.073 10.4532C113.404 10.5446 113.778 10.6663 114.186 10.8125C114.186 11.2375 114.126 11.716 114.009 12.2433C113.892 12.7706 113.704 13.276 113.452 13.757C112.866 13.5719 112.355 13.4489 111.914 13.3819C111.476 13.3186 110.972 13.2845 110.404 13.2845C109.194 13.2845 108.281 13.662 107.666 14.4109C107.049 15.1622 106.742 16.229 106.742 17.6172C106.742 19.1175 107.076 20.2098 107.738 20.8929C108.402 21.581 109.3 21.9207 110.431 21.9207C110.727 21.9207 110.991 21.9183 111.238 21.9097C111.484 21.9 111.721 21.8756 111.957 21.8379C112.189 21.7989 112.431 21.7453 112.672 21.6735C112.918 21.5992 113.206 21.5042 113.539 21.3946L113.54 21.3959Z"
      fill="white"
    />
  </g>
  <defs>
    <clipPath id="clip0_1702_29260">
      <rect
        width="116"
        height="35.8064"
        fill="white"
        transform="translate(0 0.612904)"
      />
    </clipPath>
  </defs>
</svg>